<svg width="15" height="24" viewBox="0 0 15 24" fill="none" xmlns="http://www.w3.org/2000/svg">
<path d="M13.5342 0.0049936L10.4065 0C6.89258 0 4.62174 2.31828 4.62174 5.90643V8.62969H1.47694C1.2052 8.62969 0.985138 8.84891 0.985138 9.11932V13.065C0.985138 13.3354 1.20545 13.5544 1.47694 13.5544H4.62174V23.5106C4.62174 23.781 4.8418 24 5.11355 24H9.21662C9.48837 24 9.70842 23.7808 9.70842 23.5106V13.5544H13.3854C13.6572 13.5544 13.8772 13.3354 13.8772 13.065L13.8787 9.11932C13.8787 8.98948 13.8268 8.86514 13.7347 8.77326C13.6426 8.68138 13.5172 8.62969 13.3867 8.62969H9.70842V6.32115C9.70842 5.21157 9.97415 4.64829 11.4267 4.64829L13.5337 4.64755C13.8052 4.64755 14.0253 4.42833 14.0253 4.15817V0.494367C14.0253 0.224462 13.8055 0.00549296 13.5342 0.0049936Z" fill="white"/>
</svg>
