<svg width="23" height="23" viewBox="0 0 23 23" fill="none" xmlns="http://www.w3.org/2000/svg">
<path fill-rule="evenodd" clip-rule="evenodd" d="M15.8769 0H7.34709C3.42194 0 0.238892 3.1673 0.238892 7.07302V15.5606C0.238892 19.4664 3.42194 22.6336 7.34709 22.6336H15.8769C19.8021 22.6336 22.9851 19.4664 22.9851 15.5606V7.07302C22.9851 3.1673 19.8021 0 15.8769 0ZM20.8527 15.5606C20.8527 18.2908 18.6207 20.5117 15.8769 20.5117H7.34709C4.60333 20.5117 2.37135 18.2908 2.37135 15.5606V7.07302C2.37135 4.34283 4.60333 2.1219 7.34709 2.1219H15.8769C18.6207 2.1219 20.8527 4.34283 20.8527 7.07302V15.5606ZM11.6237 5.6709C8.48329 5.6709 5.93713 8.20445 5.93713 11.3293C5.93713 14.4542 8.48329 16.9877 11.6237 16.9877C14.7641 16.9877 17.3103 14.4542 17.3103 11.3293C17.3103 8.20445 14.7641 5.6709 11.6237 5.6709ZM11.6237 14.8658C9.66467 14.8658 8.06959 13.2786 8.06959 11.3293C8.06959 9.37857 9.66467 7.7928 11.6237 7.7928C13.5827 7.7928 15.1778 9.37857 15.1778 11.3293C15.1778 13.2786 13.5827 14.8658 11.6237 14.8658ZM18.4692 5.25004C18.4692 5.66751 18.129 6.00594 17.7095 6.00594C17.2899 6.00594 16.9498 5.66751 16.9498 5.25004C16.9498 4.83257 17.2899 4.49414 17.7095 4.49414C18.129 4.49414 18.4692 4.83257 18.4692 5.25004Z" fill="white"/>
</svg>
