<svg width="140" height="34" viewBox="0 0 140 34" fill="none" xmlns="http://www.w3.org/2000/svg">
<path d="M17 34C26.3888 34 34 26.3888 34 17C34 7.61116 26.3888 0 17 0C7.61116 0 0 7.61116 0 17C0 26.3888 7.61116 34 17 34Z" fill="#EF6820"/>
<path d="M18.5937 12.4843C18.5937 11.3107 17.6424 10.3593 16.4688 10.3593C15.2951 10.3593 14.3438 11.3107 14.3438 12.4843V24.1718C14.3438 25.3454 15.2951 26.2968 16.4688 26.2968C17.6424 26.2968 18.5937 25.3454 18.5937 24.1718V12.4843Z" fill="white"/>
<path d="M11.6875 16.4689C11.6875 15.2952 10.7361 14.3439 9.5625 14.3439C8.3889 14.3439 7.4375 15.2952 7.4375 16.4689V24.172C7.4375 25.3456 8.3889 26.297 9.5625 26.297C10.7361 26.297 11.6875 25.3456 11.6875 24.172V16.4689Z" fill="white"/>
<path d="M25.5 8.76568C25.5 7.59207 24.5486 6.64068 23.375 6.64068C22.2014 6.64068 21.25 7.59207 21.25 8.76568C21.25 14.7822 21.25 18.1555 21.25 24.172C21.25 25.3457 22.2014 26.297 23.375 26.297C24.5486 26.297 25.5 25.3457 25.5 24.172V8.76568Z" fill="white"/>
<path d="M42.9112 9.81247C42.5989 9.81343 42.2896 9.75157 42.0017 9.63056C41.7193 9.51377 41.4627 9.34263 41.2464 9.12687C41.0328 8.91397 40.8618 8.66233 40.7424 8.38543C40.6213 8.10566 40.5605 7.79771 40.5605 7.46208C40.5605 7.12621 40.6213 6.81851 40.7427 6.5385C40.8619 6.26163 41.0328 6.01 41.2461 5.79706C41.4625 5.58127 41.7192 5.41013 42.0017 5.29337C42.2895 5.17227 42.5988 5.11033 42.9112 5.11122C43.5642 5.11122 44.1237 5.34 44.5903 5.79706C45.0566 6.25411 45.2897 6.80904 45.2897 7.46208C45.2897 8.11488 45.0566 8.66981 44.5903 9.12687C44.124 9.58393 43.5642 9.81247 42.9112 9.81247ZM41.0922 25.5107V11.7995H44.7583V25.5112H41.0926L41.0922 25.5107ZM56.6744 25.8187V23.8598C56.3387 24.4383 55.8163 24.9325 55.1074 25.3429C54.3983 25.7534 53.5216 25.9586 52.4771 25.9586C51.6003 25.9586 50.7654 25.7767 49.9725 25.4129C49.1814 25.0503 48.4686 24.5371 47.8739 23.9018C47.2675 23.2582 46.7872 22.4889 46.4328 21.5932C46.0783 20.6978 45.901 19.7184 45.901 18.6551C45.901 17.5917 46.0783 16.6125 46.4328 15.717C46.7874 14.8214 47.2675 14.052 47.8739 13.4084C48.4686 12.7732 49.1814 12.2599 49.9725 11.8974C50.7576 11.5353 51.6124 11.349 52.4771 11.3517C53.5216 11.3517 54.3985 11.5569 55.1072 11.9673C55.8163 12.3778 56.3385 12.872 56.6744 13.4502L56.6758 11.7993H60.34V31.5552H56.6744V25.8189V25.8187ZM53.2326 22.5727C53.7176 22.5727 54.1792 22.484 54.6176 22.307C55.0529 22.1317 55.448 21.8698 55.7789 21.5371C56.1148 21.2015 56.3854 20.7911 56.5906 20.3061C56.7958 19.8211 56.8983 19.2708 56.8983 18.6551C56.8983 18.0395 56.7958 17.4892 56.5906 17.0042C56.3854 16.5192 56.1146 16.1088 55.7789 15.7729C55.448 15.4403 55.0529 15.1784 54.6176 15.0033C54.1775 14.8258 53.7071 14.7356 53.2326 14.7376C52.7476 14.7376 52.2857 14.8309 51.8473 15.0174C51.4132 15.201 51.0188 15.4671 50.686 15.8008C50.3504 16.1367 50.0798 16.5471 49.8746 17.0321C49.6694 17.5171 49.5669 18.0582 49.5669 18.6551C49.5669 19.2521 49.6694 19.7932 49.8746 20.2781C50.0798 20.7631 50.3504 21.1736 50.686 21.5094C51.0188 21.8432 51.4132 22.1093 51.8473 22.2929C52.2853 22.4793 52.7566 22.5745 53.2326 22.5727ZM73.4274 11.3517C74.4908 11.3517 75.4657 11.5336 76.3516 11.8974C77.238 12.2609 78.0026 12.7646 78.6464 13.4084C79.2899 14.052 79.7936 14.8214 80.1574 15.717C80.5212 16.6125 80.7031 17.5919 80.7031 18.6551C80.7031 19.7184 80.521 20.6978 80.1574 21.5932C79.7936 22.4889 79.2899 23.2582 78.6464 23.9018C78.0028 24.5454 77.2378 25.0491 76.3516 25.4129C75.4657 25.7767 74.4908 25.9586 73.4276 25.9586C72.3641 25.9586 71.3893 25.7767 70.5034 25.4129C69.6169 25.0491 68.8524 24.5454 68.2086 23.9018C67.565 23.2582 67.0614 22.4889 66.6976 21.5932C66.3338 20.6978 66.1519 19.7184 66.1519 18.6551C66.1519 17.5917 66.334 16.6125 66.6976 15.717C67.0614 14.8214 67.565 14.052 68.2086 13.4084C68.8522 12.7649 69.6172 12.2609 70.5034 11.8974C71.3893 11.5336 72.3641 11.3517 73.4274 11.3517ZM73.4274 22.5727C73.8937 22.5727 74.3463 22.484 74.7847 22.307C75.22 22.1317 75.6151 21.8698 75.946 21.5371C76.2817 21.2015 76.5476 20.7911 76.7433 20.3061C76.9393 19.8211 77.0372 19.2708 77.0372 18.6551C77.0372 18.0395 76.9393 17.4892 76.7433 17.0042C76.5476 16.5192 76.2819 16.1088 75.946 15.7729C75.6151 15.4403 75.22 15.1784 74.7847 15.0033C74.3538 14.8276 73.8928 14.7373 73.4274 14.7376C72.9424 14.7376 72.4853 14.8262 72.0564 15.0033C71.6266 15.181 71.2365 15.4426 70.9089 15.7729C70.5733 16.1088 70.3074 16.5192 70.1116 17.0042C69.9157 17.4892 69.8178 18.0395 69.8178 18.6551C69.8178 19.2708 69.9157 19.8208 70.1116 20.3061C70.3074 20.7911 70.5731 21.2015 70.9089 21.5374C71.2365 21.8676 71.6266 22.1293 72.0564 22.307C72.4853 22.4843 72.9424 22.5727 73.4274 22.5727ZM81.5101 11.7995H85.1773V13.4502C85.5117 12.8722 86.0341 12.3778 86.743 11.9673C87.4519 11.5569 88.3288 11.3517 89.3734 11.3517C90.2501 11.3517 91.085 11.5336 91.8777 11.8974C92.6688 12.2599 93.3817 12.7732 93.9765 13.4084C94.5829 14.052 95.0633 14.8214 95.4176 15.717C95.7722 16.6125 95.9495 17.5919 95.9495 18.6551C95.9495 19.7184 95.7722 20.6978 95.4176 21.5932C95.063 22.4889 94.5829 23.2582 93.9765 23.9018C93.3817 24.5371 92.6688 25.0504 91.8777 25.4129C91.0926 25.775 90.2379 25.9612 89.3734 25.9586C88.3286 25.9586 87.4519 25.7534 86.743 25.3429C86.0341 24.9325 85.5117 24.4383 85.1761 23.8598V31.555H81.5099V11.7995H81.5101ZM88.6178 22.5727C89.1028 22.5727 89.5645 22.4794 90.0031 22.2929C90.4371 22.1092 90.8314 21.8432 91.1642 21.5094C91.5001 21.1736 91.7706 20.7631 91.9758 20.2781C92.181 19.7932 92.2835 19.2521 92.2835 18.6551C92.2835 18.0582 92.181 17.5171 91.9758 17.0321C91.7706 16.5471 91.5001 16.1367 91.1642 15.8008C90.8314 15.4671 90.4371 15.201 90.0031 15.0174C89.5652 14.8309 89.0938 14.7357 88.6178 14.7376C88.1329 14.7376 87.6712 14.8262 87.2326 15.0033C86.7974 15.1785 86.4023 15.4403 86.0715 15.7729C85.7356 16.1088 85.4651 16.5192 85.2599 17.0042C85.0546 17.4892 84.9522 18.0395 84.9522 18.6551C84.9522 19.2708 85.0546 19.8208 85.2599 20.3061C85.4651 20.7911 85.7356 21.2015 86.0715 21.5374C86.4023 21.8699 86.7974 22.1318 87.2326 22.307C87.6727 22.4845 88.1432 22.5747 88.6178 22.5727ZM97.9598 14.9333H95.5531V11.7993H97.9598V7.60197H101.626V11.7993H104.983V14.9333H101.626V20.2502C101.626 20.5674 101.658 20.861 101.723 21.1318C101.789 21.4021 101.915 21.6306 102.101 21.8171C102.362 22.1158 102.736 22.265 103.221 22.265C103.538 22.265 103.79 22.2322 103.976 22.1668C104.164 22.101 104.342 22.0118 104.508 21.9012L105.543 25.119C105.102 25.3284 104.637 25.4835 104.158 25.5809C103.664 25.6834 103.118 25.7347 102.521 25.7347C101.831 25.7347 101.21 25.6276 100.66 25.4129C100.11 25.1984 99.6482 24.9046 99.2749 24.5313C98.3982 23.692 97.9598 22.4981 97.9598 20.9496V14.9333ZM108.561 9.81247C108.249 9.81343 107.939 9.75157 107.652 9.63056C107.369 9.51379 107.112 9.34265 106.896 9.12687C106.683 8.91394 106.512 8.66231 106.392 8.38543C106.271 8.10566 106.21 7.79771 106.21 7.46208C106.21 7.12621 106.271 6.81851 106.392 6.5385C106.512 6.26161 106.683 6.00998 106.896 5.79706C107.112 5.5813 107.369 5.41016 107.651 5.29337C107.939 5.17224 108.249 5.11029 108.561 5.11122C109.214 5.11122 109.774 5.34 110.24 5.79706C110.706 6.25411 110.939 6.80904 110.939 7.46208C110.939 8.11488 110.706 8.66981 110.24 9.12687C109.774 9.58393 109.214 9.81247 108.561 9.81247ZM106.742 25.5107V11.7995H110.408V25.5112H106.742V25.5107ZM118.826 11.3517C119.89 11.3517 120.864 11.5336 121.75 11.8974C122.637 12.2609 123.402 12.7646 124.045 13.4084C124.689 14.052 125.192 14.8214 125.556 15.717C125.92 16.6125 126.102 17.5919 126.102 18.6551C126.102 19.7184 125.92 20.6978 125.556 21.5932C125.192 22.4889 124.689 23.2582 124.045 23.9018C123.402 24.5454 122.637 25.0491 121.751 25.4129C120.864 25.7767 119.89 25.9586 118.826 25.9586C117.763 25.9586 116.788 25.7767 115.902 25.4129C115.016 25.0491 114.251 24.5454 113.608 23.9018C112.964 23.2582 112.46 22.4889 112.097 21.5932C111.733 20.6978 111.551 19.7184 111.551 18.6551C111.551 17.5917 111.733 16.6125 112.097 15.717C112.46 14.8214 112.964 14.052 113.608 13.4084C114.251 12.7649 115.016 12.2609 115.902 11.8974C116.788 11.5336 117.763 11.3517 118.826 11.3517H118.826ZM118.826 22.5727C119.293 22.5727 119.745 22.484 120.183 22.307C120.619 22.1317 121.014 21.8698 121.345 21.5371C121.681 21.2015 121.946 20.7911 122.142 20.3061C122.338 19.8211 122.436 19.2708 122.436 18.6551C122.436 18.0395 122.338 17.4892 122.142 17.0042C121.946 16.5192 121.681 16.1088 121.345 15.7729C121.014 15.4403 120.619 15.1784 120.183 15.0033C119.753 14.8276 119.292 14.7374 118.826 14.7376C118.341 14.7376 117.884 14.8262 117.455 15.0033C117.025 15.181 116.635 15.4427 116.308 15.7729C115.972 16.1088 115.706 16.5192 115.51 17.0042C115.314 17.4892 115.217 18.0395 115.217 18.6551C115.217 19.2708 115.314 19.8208 115.51 20.3061C115.706 20.7911 115.972 21.2015 116.308 21.5374C116.635 21.8676 117.025 22.1292 117.455 22.307C117.884 22.4843 118.341 22.5727 118.826 22.5727ZM130.323 13.5903H130.547C130.976 12.8999 131.554 12.3542 132.282 11.9532C133.009 11.552 133.84 11.3517 134.772 11.3517C135.63 11.3517 136.386 11.4916 137.039 11.7713C137.692 12.0511 138.228 12.4477 138.648 12.9606C139.068 13.4735 139.385 14.0892 139.599 14.8075C139.814 15.5257 139.921 16.3232 139.921 17.1999V25.511H136.255V17.6478C136.255 16.6591 136.036 15.9269 135.598 15.4511C135.159 14.9754 134.52 14.7376 133.681 14.7376C133.177 14.7376 132.734 14.8447 132.352 15.0594C131.967 15.2757 131.633 15.5714 131.372 15.9269C131.102 16.2907 130.897 16.7196 130.757 17.214C130.617 17.7085 130.547 18.2355 130.547 18.795V25.511H126.881V11.7993H130.323V13.5903Z" fill="black"/>
</svg>
