<svg width="26" height="21" viewBox="0 0 26 21" fill="none" xmlns="http://www.w3.org/2000/svg">
<path d="M26 2.48608C25.0341 2.90769 24.0048 3.18715 22.9317 3.32284C24.0357 2.667 24.8782 1.63638 25.2743 0.394154C24.2451 1.00477 23.1087 1.43608 21.8976 1.67677C20.9203 0.641308 19.5274 0 18.0079 0C15.0598 0 12.6863 2.38108 12.6863 5.30008C12.6863 5.72007 12.722 6.12392 12.8097 6.50838C8.38264 6.29354 4.46532 4.18223 1.83376 0.966C1.37433 1.75915 1.10484 2.667 1.10484 3.64431C1.10484 5.47938 2.05454 7.10607 3.47017 8.04784C2.61462 8.03169 1.77532 7.78454 1.06426 7.39523C1.06426 7.41138 1.06426 7.43238 1.06426 7.45338C1.06426 10.0283 2.91009 12.1671 5.33061 12.6598C4.89715 12.7777 4.42474 12.8342 3.93446 12.8342C3.59355 12.8342 3.24938 12.8148 2.92632 12.7438C3.61627 14.8421 5.57412 16.3848 7.9021 16.4349C6.09037 17.8451 3.78998 18.6948 1.29965 18.6948C0.862953 18.6948 0.444111 18.6755 0.0252686 18.6221C2.3841 20.1358 5.17963 21 8.19432 21C17.9933 21 23.3506 12.9231 23.3506 5.922C23.3506 5.68777 23.3424 5.46161 23.3311 5.23707C24.3879 4.49077 25.2759 3.55869 26 2.48608Z" fill="white"/>
</svg>
